<svg id="Capa_1" data-name="Capa 1" xmlns="http://www.w3.org/2000/svg" viewBox="0 0 29.67 28.6"><defs><style>.cls-1{fill:#444;}</style></defs><path class="cls-1" d="M4.84,14.3l2.05.1a8,8,0,0,1,3.2-5.54L9,7.14a1,1,0,0,1,.37-1.37,1,1,0,0,1,1.37.37L11.64,8A8.09,8.09,0,0,1,18,8L19,6.14a1,1,0,0,1,1.37-.37,1,1,0,0,1,.37,1.37L19.59,8.86a8,8,0,0,1,3.2,5.54l2.05-.1a1,1,0,0,1,.7.29,1,1,0,0,1,.3.71,1,1,0,0,1-.3.71,1,1,0,0,1-.7.29l-2.05-.1a8,8,0,0,1-3.2,5.54l1.12,1.72a1,1,0,0,1-.37,1.37A1,1,0,0,1,19,24.46L18,22.64a8.09,8.09,0,0,1-6.4,0l-.93,1.82a1,1,0,0,1-1.37.37A1,1,0,0,1,9,23.46l1.12-1.72a8,8,0,0,1-3.2-5.54l-2,.1a1,1,0,0,1-1-1,1,1,0,0,1,.29-.71A1,1,0,0,1,4.84,14.3Zm7.07.35a2.86,2.86,0,0,1,.93-1.56l-1.66-2.54A6,6,0,0,0,8.89,14.5Zm2.93-2.35a2.93,2.93,0,0,1,.9.14l1.38-2.69a6,6,0,0,0-4.56,0l1.38,2.69A2.93,2.93,0,0,1,14.84,12.3Zm2.93,2.35,3-.15a6,6,0,0,0-2.29-3.95l-1.66,2.54A2.86,2.86,0,0,1,17.77,14.65Zm0,1.3a2.86,2.86,0,0,1-.93,1.56l1.66,2.54a6,6,0,0,0,2.29-3.95ZM14.84,18.3a3,3,0,0,1-.91-.14l-1.37,2.69a6,6,0,0,0,4.56,0l-1.37-2.69A3,3,0,0,1,14.84,18.3ZM11.91,16l-3,.15a6,6,0,0,0,2.29,3.95l1.66-2.54A2.86,2.86,0,0,1,11.91,16Z"/></svg>